<svg xmlns:xlink="http://www.w3.org/1999/xlink" preserveAspectRatio="xMidYMid meet" data-bbox="241.218 236.8 124.192 125.135" viewBox="0 0 600 600" xmlns="http://www.w3.org/2000/svg" data-type="ugc" role="img" aria-labelledby="svgcid-eca9ejezaum4" width="600"  height="600" ><defs><linearGradient y2="301.936" x2="363.646" y1="301.936" x1="237.217" gradientUnits="userSpaceOnUse" id="svgcid--knisl8d7msft">
            <stop offset="0" stop-color="#a400e9"></stop>
            <stop offset="1" stop-color="#000000"></stop>
        </linearGradient><linearGradient y2="277.352" x2="345.864" y1="277.352" x1="304.04" gradientUnits="userSpaceOnUse" id="svgcid-3iqqyldfpx2j">
            <stop offset="0" stop-color="#a300e9"></stop>
            <stop offset="1" stop-color="#000000"></stop>
        </linearGradient><linearGradient y2="264.791" x2="369.402" y1="264.791" x1="305.227" gradientUnits="userSpaceOnUse" id="svgcid--8s36vv-65ebxq">
            <stop offset="0" stop-color="#a400e9"></stop>
            <stop offset="1" stop-color="#000000"></stop>
        </linearGradient><linearGradient y2="301.936" x2="363.646" y1="301.936" x1="237.217" gradientUnits="userSpaceOnUse" id="svgcid--knisl8d7msft">
            <stop offset="0" stop-color="#a400e9"></stop>
            <stop offset="1" stop-color="#000000"></stop>
        </linearGradient><linearGradient y2="277.352" x2="345.864" y1="277.352" x1="304.04" gradientUnits="userSpaceOnUse" id="svgcid-3iqqyldfpx2j">
            <stop offset="0" stop-color="#a300e9"></stop>
            <stop offset="1" stop-color="#000000"></stop>
        </linearGradient><linearGradient y2="264.791" x2="369.402" y1="264.791" x1="305.227" gradientUnits="userSpaceOnUse" id="svgcid--8s36vv-65ebxq">
            <stop offset="0" stop-color="#a400e9"></stop>
            <stop offset="1" stop-color="#000000"></stop>
        </linearGradient></defs><title id="svgcid-eca9ejezaum4">picto téléphone</title>
    <g>
        <linearGradient y2="301.936" x2="363.646" y1="301.936" x1="237.217" gradientUnits="userSpaceOnUse" id="svgcid--knisl8d7msft">
            <stop offset="0" stop-color="#a400e9"></stop>
            <stop offset="1" stop-color="#000000"></stop>
        </linearGradient>
        <path d="M251.67 249.26s10.68-15.23 25.12-1.78l12.66 12.86s11.08 7.71-3.96 21.96c0 0-4.53 5.9-.99 11.67 3.61 5.88 22.98 23.7 23.34 23.34 0 0 4.75 4.15 7.12 3.56 3.84-.96.59.79 9.89-8.51s20.77 4.35 20.77 4.35l12.86 13.65s5.54 8.31-7.52 22.35c-12.69 13.66-28.09 8.11-28.09 8.11s-32.71-12.67-55.38-37.19c-21.96-23.73-37.58-51.42-15.82-74.37z" fill="none" stroke="url(&quot;#svgcid--knisl8d7msft&quot;)" stroke-width="8px" stroke-linecap="round" stroke-miterlimit="10"></path>
        <linearGradient y2="277.352" x2="345.864" y1="277.352" x1="304.04" gradientUnits="userSpaceOnUse" id="svgcid-3iqqyldfpx2j">
            <stop offset="0" stop-color="#a300e9"></stop>
            <stop offset="1" stop-color="#000000"></stop>
        </linearGradient>
        <path d="M308.04 260.14s33.03 4.95 33.82 34.42" fill="none" stroke="url(&quot;#svgcid-3iqqyldfpx2j&quot;)" stroke-width="8px" stroke-linecap="round" stroke-miterlimit="10"></path>
        <linearGradient y2="264.791" x2="369.402" y1="264.791" x1="305.227" gradientUnits="userSpaceOnUse" id="svgcid--8s36vv-65ebxq">
            <stop offset="0" stop-color="#a400e9"></stop>
            <stop offset="1" stop-color="#000000"></stop>
        </linearGradient>
        <path d="M309.23 236.8s51.43 7.52 56.18 55.98" fill="none" stroke="url(&quot;#svgcid--8s36vv-65ebxq&quot;)" stroke-width="8px" stroke-linecap="round" stroke-miterlimit="10"></path>
    </g>
</svg>