<svg xmlns:xlink="http://www.w3.org/1999/xlink" preserveAspectRatio="xMidYMid meet" data-bbox="213.57 247.556 172.17 104.061" viewBox="0 0 600 600" xmlns="http://www.w3.org/2000/svg" data-type="ugc" role="img" aria-labelledby="svgcid--cwl1tv-xp3ccc" width="600"  height="600" ><defs><linearGradient gradientTransform="rotate(180 795.567 25.967)" y2="-221.625" x2="1380.571" y1="-221.625" x1="1355.582" gradientUnits="userSpaceOnUse" id="svgcid-7yp45ugj6o8y">
            <stop offset="0" stop-color="#a400e9"></stop>
            <stop offset="1" stop-color="#000000"></stop>
        </linearGradient><linearGradient gradientTransform="rotate(180 948.762 25.967)" y2="-221.625" x2="1533.766" y1="-221.625" x1="1508.777" gradientUnits="userSpaceOnUse" id="svgcid-li314lilh4ud">
            <stop offset="0" stop-color="#a400e9"></stop>
            <stop offset="1" stop-color="#000000"></stop>
        </linearGradient><linearGradient y2="300.856" x2="256.765" y1="300.856" x1="232.831" gradientUnits="userSpaceOnUse" id="svgcid-qz1h1fc8bz8z">
            <stop offset="0" stop-color="#a400e9"></stop>
            <stop offset="1" stop-color="#000000"></stop>
        </linearGradient><linearGradient y2="301.515" x2="366.394" y1="301.515" x1="342.46" gradientUnits="userSpaceOnUse" id="svgcid--f690cm2ktbie">
            <stop offset="0" stop-color="#a400e9"></stop>
            <stop offset="1" stop-color="#000000"></stop>
        </linearGradient><linearGradient y2="320.9" x2="340.633" y1="320.9" x1="257.095" gradientUnits="userSpaceOnUse" id="svgcid--kymyu0-w1pd8k">
            <stop offset="0" stop-color="#a400e9"></stop>
            <stop offset="1" stop-color="#000000"></stop>
        </linearGradient><linearGradient y2="301.382" x2="337.729" y1="301.382" x1="261.263" gradientUnits="userSpaceOnUse" id="svgcid-gxg8c2ey2w5i">
            <stop offset="0" stop-color="#a400e9"></stop>
            <stop offset="1" stop-color="#000000"></stop>
        </linearGradient><linearGradient y2="333.559" x2="250.435" y1="333.559" x1="223.6" gradientUnits="userSpaceOnUse" id="svgcid--rfvv4xgetlfg">
            <stop offset="0" stop-color="#a400e9"></stop>
            <stop offset="1" stop-color="#000000"></stop>
        </linearGradient><linearGradient y2="333.712" x2="372.809" y1="333.712" x1="348.084" gradientUnits="userSpaceOnUse" id="svgcid--1zvlq4pe51t2">
            <stop offset="0" stop-color="#a400e9"></stop>
            <stop offset="1" stop-color="#000000"></stop>
        </linearGradient><linearGradient y2="279.757" x2="359.886" y1="279.757" x1="237.315" gradientUnits="userSpaceOnUse" id="svgcid-1vov45-jfe2g4">
            <stop offset="0" stop-color="#a400e9"></stop>
            <stop offset="1" stop-color="#000000"></stop>
        </linearGradient><linearGradient y2="299.586" x2="381.985" y1="299.586" x1="215.954" gradientUnits="userSpaceOnUse" id="svgcid-46kn0s-1dag1w">
            <stop offset="0" stop-color="#dd39d7"></stop>
            <stop offset="1" stop-color="#000000"></stop>
        </linearGradient><linearGradient gradientTransform="rotate(180 795.567 25.967)" y2="-221.625" x2="1380.571" y1="-221.625" x1="1355.582" gradientUnits="userSpaceOnUse" id="svgcid-7yp45ugj6o8y">
            <stop offset="0" stop-color="#a400e9"></stop>
            <stop offset="1" stop-color="#000000"></stop>
        </linearGradient><linearGradient gradientTransform="rotate(180 948.762 25.967)" y2="-221.625" x2="1533.766" y1="-221.625" x1="1508.777" gradientUnits="userSpaceOnUse" id="svgcid-li314lilh4ud">
            <stop offset="0" stop-color="#a400e9"></stop>
            <stop offset="1" stop-color="#000000"></stop>
        </linearGradient><linearGradient y2="300.856" x2="256.765" y1="300.856" x1="232.831" gradientUnits="userSpaceOnUse" id="svgcid-qz1h1fc8bz8z">
            <stop offset="0" stop-color="#a400e9"></stop>
            <stop offset="1" stop-color="#000000"></stop>
        </linearGradient><linearGradient y2="301.515" x2="366.394" y1="301.515" x1="342.46" gradientUnits="userSpaceOnUse" id="svgcid--f690cm2ktbie">
            <stop offset="0" stop-color="#a400e9"></stop>
            <stop offset="1" stop-color="#000000"></stop>
        </linearGradient><linearGradient y2="320.9" x2="340.633" y1="320.9" x1="257.095" gradientUnits="userSpaceOnUse" id="svgcid--kymyu0-w1pd8k">
            <stop offset="0" stop-color="#a400e9"></stop>
            <stop offset="1" stop-color="#000000"></stop>
        </linearGradient><linearGradient y2="301.382" x2="337.729" y1="301.382" x1="261.263" gradientUnits="userSpaceOnUse" id="svgcid-gxg8c2ey2w5i">
            <stop offset="0" stop-color="#a400e9"></stop>
            <stop offset="1" stop-color="#000000"></stop>
        </linearGradient><linearGradient y2="333.559" x2="250.435" y1="333.559" x1="223.6" gradientUnits="userSpaceOnUse" id="svgcid--rfvv4xgetlfg">
            <stop offset="0" stop-color="#a400e9"></stop>
            <stop offset="1" stop-color="#000000"></stop>
        </linearGradient><linearGradient y2="333.712" x2="372.809" y1="333.712" x1="348.084" gradientUnits="userSpaceOnUse" id="svgcid--1zvlq4pe51t2">
            <stop offset="0" stop-color="#a400e9"></stop>
            <stop offset="1" stop-color="#000000"></stop>
        </linearGradient><linearGradient y2="279.757" x2="359.886" y1="279.757" x1="237.315" gradientUnits="userSpaceOnUse" id="svgcid-1vov45-jfe2g4">
            <stop offset="0" stop-color="#a400e9"></stop>
            <stop offset="1" stop-color="#000000"></stop>
        </linearGradient><linearGradient y2="299.586" x2="381.985" y1="299.586" x1="215.954" gradientUnits="userSpaceOnUse" id="svgcid-46kn0s-1dag1w">
            <stop offset="0" stop-color="#dd39d7"></stop>
            <stop offset="1" stop-color="#000000"></stop>
        </linearGradient></defs><title id="svgcid--cwl1tv-xp3ccc">picto véhicules</title>
    <g>
        <linearGradient gradientTransform="rotate(180 795.567 25.967)" y2="-221.625" x2="1380.571" y1="-221.625" x1="1355.582" gradientUnits="userSpaceOnUse" id="svgcid-7yp45ugj6o8y">
            <stop offset="0" stop-color="#a400e9"></stop>
            <stop offset="1" stop-color="#000000"></stop>
        </linearGradient>
        <path fill="none" stroke="url(&quot;#svgcid-7yp45ugj6o8y&quot;)" stroke-width="6px" stroke-linecap="round" stroke-miterlimit="10" d="M232.55 273.56c0 3.424-4.249 6.2-9.49 6.2-5.241 0-9.49-2.776-9.49-6.2 0-3.424 4.249-6.2 9.49-6.2 5.241 0 9.49 2.776 9.49 6.2z"></path>
        <linearGradient gradientTransform="rotate(180 948.762 25.967)" y2="-221.625" x2="1533.766" y1="-221.625" x1="1508.777" gradientUnits="userSpaceOnUse" id="svgcid-li314lilh4ud">
            <stop offset="0" stop-color="#a400e9"></stop>
            <stop offset="1" stop-color="#000000"></stop>
        </linearGradient>
        <path fill="none" stroke="url(&quot;#svgcid-li314lilh4ud&quot;)" stroke-width="6px" stroke-linecap="round" stroke-miterlimit="10" d="M385.74 273.56c0 3.424-4.249 6.2-9.49 6.2-5.241 0-9.49-2.776-9.49-6.2 0-3.424 4.249-6.2 9.49-6.2 5.241 0 9.49 2.776 9.49 6.2z"></path>
        <linearGradient y2="300.856" x2="256.765" y1="300.856" x1="232.831" gradientUnits="userSpaceOnUse" id="svgcid-qz1h1fc8bz8z">
            <stop offset="0" stop-color="#a400e9"></stop>
            <stop offset="1" stop-color="#000000"></stop>
        </linearGradient>
        <path fill="none" stroke="url(&quot;#svgcid-qz1h1fc8bz8z&quot;)" stroke-width="6px" stroke-linecap="round" stroke-miterlimit="10" d="M253.77 300.86a8.97 8.97 0 1 1-17.94 0 8.97 8.97 0 0 1 17.94 0z"></path>
        <linearGradient y2="301.515" x2="366.394" y1="301.515" x1="342.46" gradientUnits="userSpaceOnUse" id="svgcid--f690cm2ktbie">
            <stop offset="0" stop-color="#a400e9"></stop>
            <stop offset="1" stop-color="#000000"></stop>
        </linearGradient>
        <path fill="none" stroke="url(&quot;#svgcid--f690cm2ktbie&quot;)" stroke-width="6px" stroke-linecap="round" stroke-miterlimit="10" d="M363.4 301.52a8.97 8.97 0 1 1-17.94 0 8.97 8.97 0 0 1 17.94 0z"></path>
        <linearGradient y2="320.9" x2="340.633" y1="320.9" x1="257.095" gradientUnits="userSpaceOnUse" id="svgcid--kymyu0-w1pd8k">
            <stop offset="0" stop-color="#a400e9"></stop>
            <stop offset="1" stop-color="#000000"></stop>
        </linearGradient>
        <path fill="none" stroke="url(&quot;#svgcid--kymyu0-w1pd8k&quot;)" stroke-width="6px" stroke-linecap="round" stroke-miterlimit="10" d="M260.09 320.9h77.54"></path>
        <linearGradient y2="301.382" x2="337.729" y1="301.382" x1="261.263" gradientUnits="userSpaceOnUse" id="svgcid-gxg8c2ey2w5i">
            <stop offset="0" stop-color="#a400e9"></stop>
            <stop offset="1" stop-color="#000000"></stop>
        </linearGradient>
        <path d="M264.58 307.71h69.89s-.65-7.84-7.11-11.65a7.413 7.413 0 0 0-3.76-1.01h-47.68s-10.02-.52-11.34 12.66z" fill="none" stroke="url(&quot;#svgcid-gxg8c2ey2w5i&quot;)" stroke-width="6px" stroke-linecap="round" stroke-miterlimit="10"></path>
        <linearGradient y2="333.559" x2="250.435" y1="333.559" x1="223.6" gradientUnits="userSpaceOnUse" id="svgcid--rfvv4xgetlfg">
            <stop offset="0" stop-color="#a400e9"></stop>
            <stop offset="1" stop-color="#000000"></stop>
        </linearGradient>
        <path fill="none" stroke="url(&quot;#svgcid--rfvv4xgetlfg&quot;)" stroke-width="6px" stroke-linecap="round" stroke-miterlimit="10" d="M226.6 333.56h20.84"></path>
        <linearGradient y2="333.712" x2="372.809" y1="333.712" x1="348.084" gradientUnits="userSpaceOnUse" id="svgcid--1zvlq4pe51t2">
            <stop offset="0" stop-color="#a400e9"></stop>
            <stop offset="1" stop-color="#000000"></stop>
        </linearGradient>
        <path fill="none" stroke="url(&quot;#svgcid--1zvlq4pe51t2&quot;)" stroke-width="6px" stroke-linecap="round" stroke-miterlimit="10" d="m351.08 333.79 18.73-.15"></path>
        <linearGradient y2="279.757" x2="359.886" y1="279.757" x1="237.315" gradientUnits="userSpaceOnUse" id="svgcid-1vov45-jfe2g4">
            <stop offset="0" stop-color="#a400e9"></stop>
            <stop offset="1" stop-color="#000000"></stop>
        </linearGradient>
        <path fill="none" stroke="url(&quot;#svgcid-1vov45-jfe2g4&quot;)" stroke-width="6px" stroke-linecap="round" stroke-miterlimit="10" d="M240.31 279.76h116.58"></path>
        <linearGradient y2="299.586" x2="381.985" y1="299.586" x1="215.954" gradientUnits="userSpaceOnUse" id="svgcid-46kn0s-1dag1w">
            <stop offset="0" stop-color="#dd39d7"></stop>
            <stop offset="1" stop-color="#000000"></stop>
        </linearGradient>
        <path d="M262.2 247.58h74.64s14.14.98 22.03 28a7.514 7.514 0 0 0 4.21 4.8l.4.17s14.24 5.8 14.51 20.31v25.19s-.18 3.94-2.69 6.32c-1.2 1.14-1.8 2.77-1.8 4.42v8.23c0 .37.05.74.11 1.11.24 1.36.02 5.42-11.19 5.1l-5.83.2c-3.07.11-5.74-2.04-6.32-5.06-.3-1.59-.61-3.63-.87-6.23-.33-3.29-3.07-5.81-6.37-5.84l-88.86-.7c-3.28-.03-5.95 2.63-5.95 5.91v6.97s-.26 5.48-5.54 5.12l-12.21.01c-2.61 0-4.86-1.9-5.22-4.49-.28-2-.46-4.89-.37-9.05.04-1.64-.45-3.28-1.49-4.55-2.08-2.53-5.11-10.91-2.34-38.73 0 0 3.86-7.49 13.47-12.78 1.48-.81 2.63-2.13 3.17-3.73 2.68-7.92 11.77-31.58 24.51-30.7z" fill="none" stroke="url(&quot;#svgcid-46kn0s-1dag1w&quot;)" stroke-width="8px" stroke-linecap="round" stroke-miterlimit="10"></path>
    </g>
</svg>